<?xml version="1.0" encoding="UTF-8"?>
<svg version="1.1" xmlns="http://www.w3.org/2000/svg" width="512" height="512">
<path d="M0 0 C2.59013054 1.38140296 3.741936 2.35189541 5.6875 4.4375 C10.77475846 9.79607891 22.25847952 20.97829162 29.80859375 21.6875 C40.63678375 20.85589501 51.689023 17.41241352 61.7265625 13.30859375 C63.8125 12.5 63.8125 12.5 66.8125 12.5 C67.07353516 13.04301758 67.33457031 13.58603516 67.60351562 14.14550781 C72.3499401 23.96669962 77.045191 33.49660048 83.4140625 42.3828125 C84.8125 44.5 84.8125 44.5 84.8125 46.5 C97.78913044 48.11777621 110.7849019 49.36937826 123.8125 50.5 C123.88766846 51.47271851 123.88766846 51.47271851 123.96435547 52.46508789 C124.93236182 64.86149579 125.9597017 77.20057299 127.8125 89.5 C128.51761719 89.75523437 129.22273438 90.01046875 129.94921875 90.2734375 C133.08552183 91.61695615 135.75724656 93.27697404 138.625 95.125 C146.06438189 99.8339413 153.89123578 103.67664269 161.8125 107.5 C161.63291748 108.08555664 161.45333496 108.67111328 161.26831055 109.27441406 C159.25614939 115.89980693 157.39679283 122.55656041 155.625 129.25 C155.35236328 130.25160156 155.07972656 131.25320312 154.79882812 132.28515625 C152.18265059 141.16492339 152.18265059 141.16492339 154.61328125 149.7265625 C155.43400722 150.87139575 156.27228898 152.00378718 157.125 153.125 C157.78810181 154.02871338 157.78810181 154.02871338 158.46459961 154.95068359 C162.48780551 160.32106137 166.9759292 165.18064981 171.66015625 169.9765625 C174.78268182 173.63745455 174.78268182 173.63745455 174.8125 176.5 C173.765625 178.1484375 173.765625 178.1484375 172.0625 179.875 C168.53842287 183.64725158 165.30520048 187.56378361 162.125 191.625 C161.6619043 192.21071777 161.19880859 192.79643555 160.72167969 193.39990234 C154.49789931 200.44093271 154.49789931 200.44093271 152.6875 209.125 C153.96998915 218.89891734 157.09724995 229.32513229 161.06640625 238.3515625 C161.96850593 240.94923173 161.81228368 241.96203982 160.8125 244.5 C159.14526367 245.65332031 159.14526367 245.65332031 156.98046875 246.578125 C156.18697021 246.93076416 155.39347168 247.28340332 154.57592773 247.64672852 C153.72587158 248.01080811 152.87581543 248.3748877 152 248.75 C144.78755085 251.97681793 138.3902784 255.44333756 131.96484375 260.06640625 C129.8125 261.5 129.8125 261.5 127.8125 261.5 C127.75843994 262.04640137 127.70437988 262.59280273 127.64868164 263.15576172 C126.87061047 270.98107116 126.06090808 278.80303494 125.25 286.625 C125.11000996 287.97656083 124.97003589 289.32812332 124.83007812 290.6796875 C124.49104184 293.95314124 124.15184536 297.22657829 123.8125 300.5 C123.14307373 300.5501123 122.47364746 300.60022461 121.78393555 300.65185547 C118.68880739 300.88696898 115.59443522 301.13094213 112.5 301.375 C111.44748047 301.45363281 110.39496094 301.53226562 109.31054688 301.61328125 C102.37360732 302.16823641 95.63575621 303.14291486 88.8125 304.5 C90.98954271 312.12147917 93.56153857 319.55938281 96.27734375 327.00390625 C96.70735687 328.18939056 97.13737 329.37487488 97.58041382 330.59628296 C98.496106 333.11948929 99.41277246 335.64231373 100.33120728 338.16452026 C101.75878393 342.08515439 103.18174955 346.00745277 104.60424805 349.92993164 C108.67296431 361.14512705 112.75369863 372.35582139 116.8671875 383.5546875 C117.4363437 385.10731689 118.00543882 386.65996867 118.57446289 388.21264648 C119.58103028 390.95907244 120.59399321 393.7030128 121.61108398 396.44555664 C122.04493408 397.62754639 122.47878418 398.80953613 122.92578125 400.02734375 C123.29485596 401.02499756 123.66393066 402.02265137 124.04418945 403.05053711 C124.8125 405.5 124.8125 405.5 124.8125 408.5 C121.22938206 407.16342744 118.07408949 405.56348083 114.8203125 403.55859375 C113.38945313 402.68170898 113.38945313 402.68170898 111.9296875 401.78710938 C110.94226563 401.17673828 109.95484375 400.56636719 108.9375 399.9375 C107.00295691 398.74812398 105.06805445 397.55933231 103.1328125 396.37109375 C102.14055664 395.76120605 101.14830078 395.15131836 100.12597656 394.52294922 C94.04465733 390.81017209 87.92758242 387.15681301 81.8125 383.5 C81.62902008 384.02982483 81.44554016 384.55964966 81.25650024 385.10552979 C79.34549372 390.62211 77.43068662 396.13736031 75.51367188 401.65185547 C74.79882918 403.7097851 74.08495469 405.76805132 73.37207031 407.82666016 C72.34694998 410.78637386 71.31834856 413.74485782 70.2890625 416.703125 C69.97127838 417.62305237 69.65349426 418.54297974 69.32608032 419.49078369 C69.0259201 420.3513739 68.72575989 421.21196411 68.41650391 422.09863281 C68.15447174 422.85364075 67.89243958 423.60864868 67.62246704 424.38653564 C66.81081201 426.5044045 65.86086575 428.49017301 64.8125 430.5 C62.39601742 428.08351742 61.81119284 426.14063615 60.66455078 422.92163086 C60.03160851 421.15812538 60.03160851 421.15812538 59.38587952 419.35899353 C58.92643243 418.06097596 58.46707946 416.76292507 58.0078125 415.46484375 C57.52761097 414.12083282 57.04688312 412.77700984 56.56565857 411.43336487 C55.54526404 408.58106882 54.52833016 405.72757285 53.51419067 402.87304688 C51.94319537 398.451179 50.36487681 394.03195102 48.78491211 389.61328125 C47.22635484 385.25369572 45.66804424 380.89402507 44.11235046 376.53341675 C40.23802764 365.6749998 36.3270734 354.83036491 32.375 344 C31.88751885 342.66268403 31.40005081 341.32536328 30.91259766 339.98803711 C29.88041051 337.15825816 28.84725 334.32884255 27.8125 331.5 C23.78387236 331.5 22.43542268 333.00794033 19.25 335.4375 C18.72204834 335.838479 18.19409668 336.23945801 17.65014648 336.65258789 C13.21839238 340.06802498 9.10422609 343.77849629 5.06640625 347.65234375 C2.72749703 349.56968181 0.66360302 350.53957552 -2.1875 351.5 C-2.81011719 350.93345703 -2.81011719 350.93345703 -3.4453125 350.35546875 C-7.93965944 346.34064419 -12.5805896 342.54114538 -17.3125 338.8125 C-17.89789551 338.34932373 -18.48329102 337.88614746 -19.08642578 337.40893555 C-22.68373788 334.59115926 -26.35416774 331.98758795 -30.1875 329.5 C-30.35226334 330.15040253 -30.51702667 330.80080505 -30.68678284 331.47091675 C-32.6012385 338.77989115 -35.00761594 345.80923699 -37.65234375 352.8828125 C-38.08235687 354.04477646 -38.51237 355.20674042 -38.95541382 356.40391541 C-40.10494567 359.50814283 -41.2584273 362.61086517 -42.41366959 365.71297073 C-43.60576229 368.91727088 -44.79247057 372.12356222 -45.97924805 375.32983398 C-46.4541724 376.61277973 -46.9291022 377.89572346 -47.40403748 379.17866516 C-47.63804197 379.81080744 -47.87204647 380.44294971 -48.11314201 381.09424782 C-48.81816986 382.99812021 -49.52381388 384.90176316 -50.22962952 386.80534363 C-54.02450709 397.04399743 -57.77851027 407.29696949 -61.5 417.5625 C-61.75006805 418.25176575 -62.00013611 418.94103149 -62.25778198 419.65118408 C-63.56949024 423.26680497 -64.87959534 426.88300151 -66.1875 430.5 C-68.83836356 429.17456822 -68.8466989 428.15288327 -69.77563477 425.37915039 C-70.07256729 424.50476822 -70.36949982 423.63038605 -70.6754303 422.72950745 C-70.99007736 421.77849655 -71.30472443 420.82748566 -71.62890625 419.84765625 C-72.12051491 418.39195473 -72.12051491 418.39195473 -72.62205505 416.90684509 C-73.671701 413.79436665 -74.71114216 410.678594 -75.75 407.5625 C-76.79446326 404.45069501 -77.84098071 401.33959131 -78.88865662 398.22886658 C-79.54093612 396.28983842 -80.19094724 394.35004548 -80.83851624 392.40943909 C-81.1322966 391.53190475 -81.42607697 390.65437042 -81.72875977 389.75024414 C-81.98698013 388.9760463 -82.2452005 388.20184845 -82.51124573 387.40419006 C-83.16160654 385.45004061 -83.16160654 385.45004061 -84.1875 383.5 C-95.07822275 389.84439419 -105.87855545 396.32206409 -116.60571289 402.93994141 C-117.54793701 403.5179248 -118.49016113 404.0959082 -119.4609375 404.69140625 C-120.30060059 405.20904541 -121.14026367 405.72668457 -122.00537109 406.26000977 C-124.1875 407.5 -124.1875 407.5 -127.1875 408.5 C-125.6867112 400.64725524 -123.12041742 393.38198269 -120.34765625 385.89453125 C-119.86070217 384.56697057 -119.37425851 383.23922258 -118.88829041 381.91130066 C-117.60703541 378.41442363 -116.31899015 374.9200868 -115.02941895 371.42626953 C-113.75973803 367.98291876 -112.49628577 364.53728603 -111.23242188 361.09179688 C-109.23044209 355.63615956 -107.22425383 350.18208844 -105.21533203 344.72900391 C-103.14129009 339.09852786 -101.07533068 333.46514713 -99.01513672 327.82958984 C-98.50272535 326.42868397 -97.99030986 325.02777961 -97.47789001 323.62687683 C-96.7424318 321.61605303 -96.0073575 319.60509343 -95.27354622 317.59366798 C-94.60583036 315.76348831 -93.93662069 313.93385385 -93.26733398 312.10424805 C-92.88850571 311.06672897 -92.50967743 310.0292099 -92.11936951 308.96025085 C-91.1875 306.5 -91.1875 306.5 -90.1875 304.5 C-93.93695865 304.01653632 -97.68715697 303.53905068 -101.4375 303.0625 C-103.00371094 302.86043945 -103.00371094 302.86043945 -104.6015625 302.65429688 C-111.78578484 301.74518232 -118.96650967 301.04343702 -126.1875 300.5 C-126.31596313 299.20751343 -126.31596313 299.20751343 -126.44702148 297.88891602 C-126.76903835 294.6515702 -127.09152133 291.41427123 -127.41430664 288.17700195 C-127.5531615 286.78346549 -127.69183767 285.3899112 -127.83032227 283.99633789 C-128.57609003 276.49289113 -129.332934 268.99197185 -130.1875 261.5 C-130.89261719 261.24476563 -131.59773438 260.98953125 -132.32421875 260.7265625 C-135.46052183 259.38304385 -138.13224656 257.72302596 -141 255.875 C-148.43938189 251.1660587 -156.26623578 247.32335731 -164.1875 243.5 C-163.24243641 237.75961377 -161.2541029 232.31361322 -159.44726562 226.80078125 C-155.67579377 215.86216179 -155.67579377 215.86216179 -155.1875 204.5 C-156.53943544 202.07766014 -157.83865425 200.0594706 -159.5 197.875 C-159.94206787 197.27252441 -160.38413574 196.67004883 -160.83959961 196.04931641 C-164.86280551 190.67893863 -169.3509292 185.81935019 -174.03515625 181.0234375 C-177.15768182 177.36254545 -177.15768182 177.36254545 -177.1875 174.5 C-176.140625 172.8515625 -176.140625 172.8515625 -174.4375 171.125 C-170.91342287 167.35274842 -167.68020048 163.43621639 -164.5 159.375 C-163.80535645 158.49642334 -163.80535645 158.49642334 -163.09667969 157.60009766 C-156.87289931 150.55906729 -156.87289931 150.55906729 -155.0625 141.875 C-156.35697134 132.00976575 -159.61661716 121.78812655 -163.37890625 112.5859375 C-164.1875 110.5 -164.1875 110.5 -164.1875 107.5 C-163.64448242 107.23896484 -163.10146484 106.97792969 -162.54199219 106.70898438 C-152.72080038 101.9625599 -143.19089952 97.267309 -134.3046875 90.8984375 C-132.1875 89.5 -132.1875 89.5 -130.1875 89.5 C-130.13343994 88.95359863 -130.07937988 88.40719727 -130.02368164 87.84423828 C-129.24561047 80.01892884 -128.43590808 72.19696506 -127.625 64.375 C-127.48500996 63.02343917 -127.34503589 61.67187668 -127.20507812 60.3203125 C-126.86604184 57.04685876 -126.52684536 53.77342171 -126.1875 50.5 C-125.539021 50.4498877 -124.89054199 50.39977539 -124.22241211 50.34814453 C-111.82600421 49.38013818 -99.48692701 48.3527983 -87.1875 46.5 C-86.80464844 45.44232422 -86.80464844 45.44232422 -86.4140625 44.36328125 C-85.07054385 41.22697817 -83.41052596 38.55525344 -81.5625 35.6875 C-76.8535587 28.24811811 -73.01085731 20.42126422 -69.1875 12.5 C-68.60194336 12.67958252 -68.01638672 12.85916504 -67.41308594 13.04418945 C-60.78769307 15.05635061 -54.13093959 16.91570717 -47.4375 18.6875 C-46.43589844 18.96013672 -45.43429688 19.23277344 -44.40234375 19.51367188 C-35.52257661 22.12984941 -35.52257661 22.12984941 -26.9609375 19.69921875 C-25.81599068 18.87865122 -24.68359669 18.04036369 -23.5625 17.1875 C-22.96147461 16.74543213 -22.36044922 16.30336426 -21.74121094 15.84790039 C-16.34346255 11.79675266 -11.39201812 7.30908716 -6.515625 2.65234375 C-2.92379069 -0.66829502 -2.92379069 -0.66829502 0 0 Z " fill="#FAD53A" transform="translate(257.1875,40.5)"/>
<path d="M0 0 C1.51168515 1.29902435 3.01219967 2.6111869 4.5 3.9375 C5.26570312 4.57300781 6.03140625 5.20851562 6.8203125 5.86328125 C26.58238492 22.57730521 37.21494393 46.52154066 39.5 71.9375 C41.35678994 97.47388784 32.94501364 122.75817927 16.6484375 142.46875 C0.02745487 161.67362041 -24.31416856 175.56611593 -49.703125 178.69140625 C-80.64348532 180.69679997 -109.65403063 174.8542932 -133.5 153.9375 C-134.61761719 153.03451172 -134.61761719 153.03451172 -135.7578125 152.11328125 C-152.16894635 138.47545747 -161.4834878 119.29863777 -166.5 98.9375 C-166.74492187 98.08414063 -166.98984375 97.23078125 -167.2421875 96.3515625 C-172.93057096 74.1434901 -166.68705771 48.58774632 -155.3125 29.25 C-140.29888773 4.87117769 -116.93372815 -11.80261923 -89.19140625 -18.91015625 C-58.72766597 -25.61404997 -24.77442332 -19.51225899 0 0 Z " fill="#FDEE78" transform="translate(320.5,141.0625)"/>
<path d="M0 0 C6.93 0.495 6.93 0.495 14 1 C14.12117187 2.55847656 14.24234375 4.11695312 14.3671875 5.72265625 C15.27963211 17.20073217 16.28439216 28.61128415 18 40 C18.70511719 40.25523437 19.41023438 40.51046875 20.13671875 40.7734375 C23.27302183 42.11695615 25.94474656 43.77697404 28.8125 45.625 C36.25188189 50.3339413 44.07873578 54.17664269 52 58 C51.82041748 58.58555664 51.64083496 59.17111328 51.45581055 59.77441406 C49.44364939 66.39980693 47.58429283 73.05656041 45.8125 79.75 C45.53986328 80.75160156 45.26722656 81.75320312 44.98632812 82.78515625 C42.37015059 91.66492339 42.37015059 91.66492339 44.80078125 100.2265625 C45.62150722 101.37139575 46.45978898 102.50378718 47.3125 103.625 C47.97560181 104.52871338 47.97560181 104.52871338 48.65209961 105.45068359 C52.67530551 110.82106137 57.1634292 115.68064981 61.84765625 120.4765625 C64.97018182 124.13745455 64.97018182 124.13745455 65 127 C63.953125 128.6484375 63.953125 128.6484375 62.25 130.375 C58.72592287 134.14725158 55.49270048 138.06378361 52.3125 142.125 C51.8494043 142.71071777 51.38630859 143.29643555 50.90917969 143.89990234 C44.68539931 150.94093271 44.68539931 150.94093271 42.875 159.625 C44.15748915 169.39891734 47.28474995 179.82513229 51.25390625 188.8515625 C52.15600593 191.44923173 51.99978368 192.46203982 51 195 C49.33276367 196.15332031 49.33276367 196.15332031 47.16796875 197.078125 C46.37447021 197.43076416 45.58097168 197.78340332 44.76342773 198.14672852 C43.91337158 198.51080811 43.06331543 198.8748877 42.1875 199.25 C34.97505085 202.47681793 28.5777784 205.94333756 22.15234375 210.56640625 C20 212 20 212 18 212 C17.94593994 212.54640137 17.89187988 213.09280273 17.83618164 213.65576172 C17.05811047 221.48107116 16.24840808 229.30303494 15.4375 237.125 C15.29750996 238.47656083 15.15753589 239.82812332 15.01757812 241.1796875 C14.67854184 244.45314124 14.33934536 247.72657829 14 251 C13.33057373 251.0501123 12.66114746 251.10022461 11.97143555 251.15185547 C8.87630739 251.38696898 5.78193522 251.63094213 2.6875 251.875 C1.63498047 251.95363281 0.58246094 252.03226563 -0.50195312 252.11328125 C-7.43889268 252.66823641 -14.17674379 253.64291486 -21 255 C-18.82295729 262.62147917 -16.25096143 270.05938281 -13.53515625 277.50390625 C-13.10514313 278.68939056 -12.67513 279.87487488 -12.23208618 281.09628296 C-11.316394 283.61948929 -10.39972754 286.14231373 -9.48129272 288.66452026 C-8.05371607 292.58515439 -6.63075045 296.50745277 -5.20825195 300.42993164 C-1.13953569 311.64512705 2.94119863 322.85582139 7.0546875 334.0546875 C7.6238437 335.60731689 8.19293882 337.15996867 8.76196289 338.71264648 C9.76853028 341.45907244 10.78149321 344.2030128 11.79858398 346.94555664 C12.23243408 348.12754639 12.66628418 349.30953613 13.11328125 350.52734375 C13.48235596 351.52499756 13.85143066 352.52265137 14.23168945 353.55053711 C15 356 15 356 15 359 C11.41688206 357.66342744 8.26158949 356.06348083 5.0078125 354.05859375 C4.05390625 353.47400391 3.1 352.88941406 2.1171875 352.28710938 C1.12976563 351.67673828 0.14234375 351.06636719 -0.875 350.4375 C-2.80954309 349.24812398 -4.74444555 348.05933231 -6.6796875 346.87109375 C-7.67194336 346.26120605 -8.66419922 345.65131836 -9.68652344 345.02294922 C-15.76784267 341.31017209 -21.88491758 337.65681301 -28 334 C-28.18347992 334.52982483 -28.36695984 335.05964966 -28.55599976 335.60552979 C-30.46700628 341.12211 -32.38181338 346.63736031 -34.29882812 352.15185547 C-35.01367082 354.2097851 -35.72754531 356.26805132 -36.44042969 358.32666016 C-37.46555002 361.28637386 -38.49415144 364.24485782 -39.5234375 367.203125 C-39.84122162 368.12305237 -40.15900574 369.04297974 -40.48641968 369.99078369 C-40.7865799 370.8513739 -41.08674011 371.71196411 -41.39599609 372.59863281 C-41.65802826 373.35364075 -41.92006042 374.10864868 -42.19003296 374.88653564 C-43.00168799 377.0044045 -43.95163425 378.99017301 -45 381 C-47.41648258 378.58351742 -48.00130716 376.64063615 -49.14794922 373.42163086 C-49.78089149 371.65812538 -49.78089149 371.65812538 -50.42662048 369.85899353 C-50.88606757 368.56097596 -51.34542054 367.26292507 -51.8046875 365.96484375 C-52.28488903 364.62083282 -52.76561688 363.27700984 -53.24684143 361.93336487 C-54.26723596 359.08106882 -55.28416984 356.22757285 -56.29830933 353.37304688 C-57.86930463 348.951179 -59.44762319 344.53195102 -61.02758789 340.11328125 C-62.58614516 335.75369572 -64.14445576 331.39402507 -65.70014954 327.03341675 C-69.57447236 316.1749998 -73.4854266 305.33036491 -77.4375 294.5 C-77.92498115 293.16268403 -78.41244919 291.82536328 -78.89990234 290.48803711 C-79.93208949 287.65825816 -80.96525 284.82884255 -82 282 C-86.02862764 282 -87.37707732 283.50794033 -90.5625 285.9375 C-91.09045166 286.338479 -91.61840332 286.73945801 -92.16235352 287.15258789 C-96.59410762 290.56802498 -100.70827391 294.27849629 -104.74609375 298.15234375 C-107.08500297 300.06968181 -109.14889698 301.03957552 -112 302 C-112.41507812 301.62230469 -112.83015625 301.24460937 -113.2578125 300.85546875 C-117.75215944 296.84064419 -122.3930896 293.04114538 -127.125 289.3125 C-127.71039551 288.84932373 -128.29579102 288.38614746 -128.89892578 287.90893555 C-132.49623788 285.09115926 -136.16666774 282.48758795 -140 280 C-140.16476334 280.65040253 -140.32952667 281.30080505 -140.49928284 281.97091675 C-142.4137385 289.27989115 -144.82011594 296.30923699 -147.46484375 303.3828125 C-147.89485687 304.54477646 -148.32487 305.70674042 -148.76791382 306.90391541 C-149.91744567 310.00814283 -151.0709273 313.11086517 -152.22616959 316.21297073 C-153.41826229 319.41727088 -154.60497057 322.62356222 -155.79174805 325.82983398 C-156.2666724 327.11277973 -156.7416022 328.39572346 -157.21653748 329.67866516 C-157.45054197 330.31080744 -157.68454647 330.94294971 -157.92564201 331.59424782 C-158.63066986 333.49812021 -159.33631388 335.40176316 -160.04212952 337.30534363 C-163.83700709 347.54399743 -167.59101027 357.79696949 -171.3125 368.0625 C-171.56256805 368.75176575 -171.81263611 369.44103149 -172.07028198 370.15118408 C-173.38199024 373.76680497 -174.69209534 377.38300151 -176 381 C-178.65086356 379.67456822 -178.6591989 378.65288327 -179.58813477 375.87915039 C-179.88506729 375.00476822 -180.18199982 374.13038605 -180.4879303 373.22950745 C-180.80257736 372.27849655 -181.11722443 371.32748566 -181.44140625 370.34765625 C-181.93301491 368.89195473 -181.93301491 368.89195473 -182.43455505 367.40684509 C-183.484201 364.29436665 -184.52364216 361.178594 -185.5625 358.0625 C-186.60696326 354.95069501 -187.65348071 351.83959131 -188.70115662 348.72886658 C-189.35343612 346.78983842 -190.00344724 344.85004548 -190.65101624 342.90943909 C-190.9447966 342.03190475 -191.23857697 341.15437042 -191.54125977 340.25024414 C-191.79948013 339.4760463 -192.0577005 338.70184845 -192.32374573 337.90419006 C-192.97410654 335.95004061 -192.97410654 335.95004061 -194 334 C-204.89072275 340.34439419 -215.69105545 346.82206409 -226.41821289 353.43994141 C-227.36043701 354.0179248 -228.30266113 354.5959082 -229.2734375 355.19140625 C-230.53293213 355.96786499 -230.53293213 355.96786499 -231.81787109 356.76000977 C-234 358 -234 358 -237 359 C-235.4992112 351.14725524 -232.93291742 343.88198269 -230.16015625 336.39453125 C-229.67320217 335.06697057 -229.18675851 333.73922258 -228.70079041 332.41130066 C-227.41953541 328.91442363 -226.13149015 325.4200868 -224.84191895 321.92626953 C-223.57223803 318.48291876 -222.30878577 315.03728603 -221.04492188 311.59179688 C-219.04294209 306.13615956 -217.03675383 300.68208844 -215.02783203 295.22900391 C-212.95379009 289.59852786 -210.88783068 283.96514713 -208.82763672 278.32958984 C-208.31522535 276.92868397 -207.80280986 275.52777961 -207.29039001 274.12687683 C-206.5549318 272.11605303 -205.8198575 270.10509343 -205.08604622 268.09366798 C-204.41833036 266.26348831 -203.74912069 264.43385385 -203.07983398 262.60424805 C-202.70100571 261.56672897 -202.32217743 260.5292099 -201.93186951 259.46025085 C-201 257 -201 257 -200 255 C-203.74945865 254.51653632 -207.49965697 254.03905068 -211.25 253.5625 C-212.81621094 253.36043945 -212.81621094 253.36043945 -214.4140625 253.15429688 C-221.60057644 252.24489233 -228.77757543 251.55849079 -236 251 C-236 246.38 -236 241.76 -236 237 C-234.93523437 237.25394531 -233.87046875 237.50789062 -232.7734375 237.76953125 C-225.69219633 239.45206434 -218.60697154 241.11681263 -211.5 242.6875 C-210.4584375 242.91824219 -209.416875 243.14898437 -208.34375 243.38671875 C-198.81335567 245.13469995 -189.34174321 245.24225929 -179.6875 245.25 C-178.93089081 245.25067474 -178.17428162 245.25134949 -177.39474487 245.25204468 C-156.45631877 245.22243428 -136.8315832 241.83087866 -117 235 C-118.01030273 234.82778931 -118.01030273 234.82778931 -119.04101562 234.65209961 C-132.89489458 232.23569792 -145.48169041 229.48399118 -158 223 C-158.99902344 222.51660156 -159.99804688 222.03320312 -161.02734375 221.53515625 C-168.13810324 217.93489794 -173.97005273 213.16584268 -180 208 C-180.86238281 207.32453125 -181.72476563 206.6490625 -182.61328125 205.953125 C-184.75060526 204.20408735 -186.52555922 202.47130779 -188.3125 200.375 C-188.82425781 199.78460938 -189.33601563 199.19421875 -189.86328125 198.5859375 C-191 197 -191 197 -191 195 C-190.34 195 -189.68 195 -189 195 C-188.236875 195.94875 -187.47375 196.8975 -186.6875 197.875 C-171.65024335 215.75422621 -146.66445757 225.90731722 -124 229 C-120.11967933 229.2794415 -116.26444375 229.33474355 -112.375 229.3125 C-110.80685547 229.30404053 -110.80685547 229.30404053 -109.20703125 229.29541016 C-84.4144193 228.91135282 -60.76730607 220.43389324 -42 204 C-41.30519531 203.43667969 -40.61039063 202.87335938 -39.89453125 202.29296875 C-21.23620604 186.88270789 -11.21233475 163.60246054 -8.19726562 140.07519531 C-7.25701987 133.35160362 -5.157955 127.42426807 -2.69628906 121.12255859 C0.61966786 112.58353091 3.03039511 103.94182124 5 95 C5.16516113 94.25830566 5.33032227 93.51661133 5.50048828 92.75244141 C10.18896342 70.58036611 10.05943651 45.08388233 5 23 C4.68675781 21.62207275 4.68675781 21.62207275 4.3671875 20.21630859 C3.1088347 14.74627065 1.79515748 9.29294027 0.41137695 3.85327148 C0 2 0 2 0 0 Z " fill="#F7BD31" transform="translate(367,90)"/>
<path d="M0 0 C0.66 0 1.32 0 2 0 C3.54669965 2.3049158 4.96281808 4.60148865 6.3515625 7 C6.77045746 7.71027344 7.18935242 8.42054688 7.62094116 9.15234375 C8.96259349 11.43088455 10.29385885 13.71530562 11.625 16 C12.5305743 17.54206367 13.43681564 19.08373583 14.34375 20.625 C16.57027704 24.41216031 18.78750432 28.20462674 21 32 C24.50486803 31.44549963 27.00399562 30.62839768 29.9765625 28.69921875 C31.09357544 27.98330566 31.09357544 27.98330566 32.2331543 27.25292969 C33.02246338 26.73633789 33.81177246 26.21974609 34.625 25.6875 C36.31104773 24.60263113 37.99725053 23.51800324 39.68359375 22.43359375 C40.55226074 21.87140137 41.42092773 21.30920898 42.31591797 20.72998047 C46.75239549 17.87052261 51.22120901 15.06256541 55.6875 12.25 C57.29572469 11.23461535 58.90381183 10.21901279 60.51171875 9.203125 C61.67447917 8.46875 62.83723958 7.734375 64 7 C65.25003176 10.75009527 64.62021863 12.61301262 63.75244141 16.45922852 C63.60789017 17.10994324 63.46333893 17.76065796 63.31440735 18.43109131 C62.83447434 20.58216731 62.3431877 22.73047495 61.8515625 24.87890625 C61.51560625 26.3718447 61.18027731 27.86492445 60.84555054 29.35813904 C60.14242922 32.48718926 59.43411299 35.61500039 58.72167969 38.74194336 C57.80758449 42.75435408 56.90270007 46.76876742 56.00121498 50.78402805 C55.3086817 53.86684121 54.61316628 56.94897468 53.91654587 60.03086662 C53.58194669 61.51116883 53.24784159 62.99158281 52.91423416 64.47210884 C52.44769184 66.53876502 51.97759587 68.60457852 51.50634766 70.67016602 C51.10544418 72.43530296 51.10544418 72.43530296 50.69644165 74.23609924 C50 77 50 77 49 79 C17.32 79 -14.36 79 -47 79 C-51.58839401 61.79352245 -51.58839401 61.79352245 -53.25390625 53.76953125 C-53.44089584 52.88698166 -53.62788544 52.00443207 -53.82054138 51.09513855 C-54.40490342 48.33502572 -54.9841414 45.57387644 -55.5625 42.8125 C-56.33185057 39.15175102 -57.10429808 35.49167112 -57.87890625 31.83203125 C-58.06119781 30.96563019 -58.24348938 30.09922913 -58.43130493 29.20657349 C-59.64716136 23.48307436 -61.01648349 17.82168101 -62.59741211 12.1862793 C-63 10 -63 10 -62 7 C-61.53440674 7.29543701 -61.06881348 7.59087402 -60.58911133 7.89526367 C-55.68039055 11.00792167 -50.76528307 14.11030158 -45.84619141 17.20654297 C-43.92525023 18.41697648 -42.00568408 19.62959451 -40.08740234 20.84423828 C-37.22903717 22.65276738 -34.36515437 24.45225118 -31.5 26.25 C-30.59870361 26.82258545 -29.69740723 27.3951709 -28.76879883 27.98510742 C-27.92728271 28.51080322 -27.0857666 29.03649902 -26.21875 29.578125 C-25.47560547 30.04637695 -24.73246094 30.51462891 -23.96679688 30.99707031 C-21.92252799 32.22713847 -21.92252799 32.22713847 -19 32 C-17.52816794 29.94151109 -16.28987651 27.95958159 -15.05859375 25.76171875 C-14.50607689 24.80686333 -14.50607689 24.80686333 -13.94239807 23.8327179 C-12.76349072 21.79020235 -11.60028303 19.73923005 -10.4375 17.6875 C-9.26771128 15.64860176 -8.09485195 13.61149113 -6.92189026 11.57441711 C-6.19249984 10.3049093 -5.46562704 9.03395092 -4.74156189 7.76139832 C-3.2326425 5.11180676 -1.69247655 2.53871482 0 0 Z " fill="#F6A52B" transform="translate(255,177)"/>
<path d="M0 0 C0.99 0 1.98 0 3 0 C9.7876312 17.96704954 16.41143023 35.9914695 22.98846436 54.03631592 C24.01124896 56.84153447 25.03519925 59.64632691 26.05916977 62.45111275 C27.06514113 65.2068537 28.07059202 67.96278432 29.07587433 70.7187767 C29.76962702 72.62061547 30.46363519 74.52236104 31.15765381 76.42410278 C32.01447393 78.77518341 32.8693391 81.12697762 33.7220459 83.47955322 C34.62043657 85.95439683 35.52491073 88.42646237 36.43518066 90.89691162 C36.8986933 92.16672508 37.36203684 93.43660028 37.82519531 94.70654297 C38.45086395 96.40978226 38.45086395 96.40978226 39.08917236 98.14743042 C40 101 40 101 40 104 C36.41688206 102.66342744 33.26158949 101.06348083 30.0078125 99.05859375 C29.05390625 98.47400391 28.1 97.88941406 27.1171875 97.28710938 C26.12976563 96.67673828 25.14234375 96.06636719 24.125 95.4375 C22.19045691 94.24812398 20.25555445 93.05933231 18.3203125 91.87109375 C17.32805664 91.26120605 16.33580078 90.65131836 15.31347656 90.02294922 C9.23215733 86.31017209 3.11508242 82.65681301 -3 79 C-3.18347992 79.52982483 -3.36695984 80.05964966 -3.55599976 80.60552979 C-5.46700628 86.12211 -7.38181338 91.63736031 -9.29882812 97.15185547 C-10.01367082 99.2097851 -10.72754531 101.26805132 -11.44042969 103.32666016 C-12.46555002 106.28637386 -13.49415144 109.24485782 -14.5234375 112.203125 C-14.84122162 113.12305237 -15.15900574 114.04297974 -15.48641968 114.99078369 C-15.7865799 115.8513739 -16.08674011 116.71196411 -16.39599609 117.59863281 C-16.65802826 118.35364075 -16.92006042 119.10864868 -17.19003296 119.88653564 C-18.00168799 122.0044045 -18.95163425 123.99017301 -20 126 C-22.41648258 123.58351742 -23.00130716 121.64063615 -24.14794922 118.42163086 C-24.56991074 117.2459404 -24.99187225 116.07024994 -25.42662048 114.8589325 C-25.88605955 113.56093243 -26.34541275 112.26290197 -26.8046875 110.96484375 C-27.28488472 109.62101436 -27.76561264 108.27737451 -28.24684143 106.93391418 C-29.53119682 103.3441867 -30.80881657 99.75209722 -32.08503342 96.1594696 C-33.39560087 92.47318577 -34.71160492 88.78884549 -36.02758789 85.10449219 C-36.41641443 84.01586286 -36.41641443 84.01586286 -36.81309605 82.90524101 C-37.33388571 81.44715936 -37.8546951 79.98908476 -38.37552452 78.5310173 C-39.15097158 76.35931163 -39.92562239 74.18732321 -40.70014954 72.01528931 C-43.49532483 64.18072627 -46.31445714 56.35576266 -49.19140625 48.55078125 C-49.48237183 47.76005722 -49.7733374 46.96933319 -50.07312012 46.15464783 C-51.34069955 42.7132478 -52.61524127 39.27465732 -53.89990234 35.83959961 C-54.32352051 34.69112549 -54.74713867 33.54265137 -55.18359375 32.359375 C-55.71811157 30.92803223 -55.71811157 30.92803223 -56.26342773 29.46777344 C-57 27 -57 27 -57 23 C-43.52432363 23.9456615 -30.68427873 28.60998013 -18 33 C-17.76978149 32.1951416 -17.76978149 32.1951416 -17.53491211 31.37402344 C-15.62586836 25.15404106 -12.88385077 19.8256009 -9.5625 14.25 C-9.08490234 13.42628906 -8.60730469 12.60257812 -8.11523438 11.75390625 C-3.14367003 3.28383366 -3.14367003 3.28383366 0 0 Z " fill="#D1302D" transform="translate(342,345)"/>
<path d="M0 0 C2.59969966 0.36091275 3.77231499 0.76068145 5.60546875 2.6875 C9.38597609 8.21357493 12.71081593 13.9179976 15.875 19.8125 C16.26840576 20.54146484 16.66181152 21.27042969 17.06713867 22.02148438 C17.43427979 22.72208984 17.8014209 23.42269531 18.1796875 24.14453125 C18.50694824 24.76690674 18.83420898 25.38928223 19.17138672 26.03051758 C20.13573577 28.32262241 20.58186812 30.55437782 21 33 C21.60360352 32.80365967 22.20720703 32.60731934 22.82910156 32.4050293 C52.52473716 22.77347688 52.52473716 22.77347688 60 23 C59.42524438 30.00087792 56.94945644 36.23736195 54.546875 42.796875 C54.08939859 44.0604318 53.63249171 45.32419492 53.17611694 46.58815002 C51.95944882 49.95225425 50.73432234 53.31321761 49.50730133 56.67355728 C48.49755073 59.44219005 47.49283567 62.21263781 46.48820686 64.98313236 C39.09838785 85.36116823 31.63029003 105.71066605 24 126 C21.34913644 124.67456822 21.3408011 123.65288327 20.41186523 120.87915039 C20.11493271 120.00476822 19.81800018 119.13038605 19.5120697 118.22950745 C19.04009911 116.8029911 19.04009911 116.8029911 18.55859375 115.34765625 C18.23085464 114.37718857 17.90311554 113.40672089 17.56544495 112.40684509 C16.515799 109.29436665 15.47635784 106.178594 14.4375 103.0625 C13.39303674 99.95069501 12.34651929 96.83959131 11.29884338 93.72886658 C10.64656388 91.78983842 9.99655276 89.85004548 9.34898376 87.90943909 C9.0552034 87.03190475 8.76142303 86.15437042 8.45874023 85.25024414 C8.07140968 84.08894737 8.07140968 84.08894737 7.67625427 82.90419006 C7.02589346 80.95004061 7.02589346 80.95004061 6 79 C-4.89072275 85.34439419 -15.69105545 91.82206409 -26.41821289 98.43994141 C-27.36043701 99.0179248 -28.30266113 99.5959082 -29.2734375 100.19140625 C-30.53293213 100.96786499 -30.53293213 100.96786499 -31.81787109 101.76000977 C-34 103 -34 103 -37 104 C-35.4992112 96.14725524 -32.93291742 88.88198269 -30.16015625 81.39453125 C-29.67320217 80.06697057 -29.18675851 78.73922258 -28.70079041 77.41130066 C-27.41953541 73.91442363 -26.13149015 70.4200868 -24.84191895 66.92626953 C-23.57223803 63.48291876 -22.30878577 60.03728603 -21.04492188 56.59179688 C-19.04294209 51.13615956 -17.03675383 45.68208844 -15.02783203 40.22900391 C-12.95379009 34.59852786 -10.88783068 28.96514713 -8.82763672 23.32958984 C-8.31522535 21.92868397 -7.80280986 20.52777961 -7.29039001 19.12687683 C-6.5549318 17.11605303 -5.8198575 15.10509343 -5.08604622 13.09366798 C-4.41833036 11.26348831 -3.74912069 9.43385385 -3.07983398 7.60424805 C-2.70100571 6.56672897 -2.32217743 5.5292099 -1.93186951 4.46025085 C-1 2 -1 2 0 0 Z " fill="#D1302D" transform="translate(167,345)"/>
<path d="M0 0 C-0.57475562 7.00087792 -3.05054356 13.23736195 -5.453125 19.796875 C-5.91060141 21.0604318 -6.36750829 22.32419492 -6.82388306 23.58815002 C-8.04055118 26.95225425 -9.26567766 30.31321761 -10.49269867 33.67355728 C-11.50244927 36.44219005 -12.50716433 39.21263781 -13.51179314 41.98313236 C-20.90161215 62.36116823 -28.36970997 82.71066605 -36 103 C-38.61945138 101.69027431 -38.65955183 100.71592143 -39.61987305 97.99023438 C-40.07495491 96.71255188 -40.07495491 96.71255188 -40.53923035 95.40905762 C-40.86015152 94.4800061 -41.18107269 93.55095459 -41.51171875 92.59375 C-41.8442012 91.63988403 -42.17668365 90.68601807 -42.51924133 89.70324707 C-43.22173681 87.67694537 -43.92003521 85.64918456 -44.61450195 83.62011719 C-45.67572625 80.53423629 -46.76389113 77.45875995 -47.85351562 74.3828125 C-48.53294051 72.41204033 -49.21072674 70.44070232 -49.88671875 68.46875 C-50.21371262 67.55589233 -50.54070648 66.64303467 -50.87760925 65.70251465 C-53.52822833 57.79384072 -53.15170453 51.46420026 -50.36328125 43.6171875 C-50.03650391 42.68430908 -49.70972656 41.75143066 -49.37304688 40.7902832 C-49.02306641 39.82823975 -48.67308594 38.86619629 -48.3125 37.875 C-47.95091797 36.87106201 -47.58933594 35.86712402 -47.21679688 34.83276367 C-46.48865474 32.82183485 -45.75584001 30.81259099 -45.01806641 28.80517578 C-44.11494555 26.31672048 -43.258009 23.81883813 -42.41796875 21.30859375 C-38.74287777 10.68540132 -38.74287777 10.68540132 -34.4375 8.3125 C-32.38671875 7.6171875 -32.38671875 7.6171875 -30 7 C-29.01644531 6.67257812 -28.03289062 6.34515625 -27.01953125 6.0078125 C-7.80351275 -0.28273597 -7.80351275 -0.28273597 0 0 Z " fill="#B61D1F" transform="translate(227,368)"/>
<path d="M0 0 C6.97589024 0.48953616 13.48683539 1.99050884 20.19921875 3.91796875 C22.60305667 4.60230904 25.0221496 5.23676912 27.45703125 5.80078125 C28.50246094 6.07277344 29.54789062 6.34476562 30.625 6.625 C31.54539062 6.84414063 32.46578125 7.06328125 33.4140625 7.2890625 C40.85092419 12.20952386 43.56134877 25.20853227 46.55908203 33.35913086 C47.37730441 35.56872302 48.22161212 37.76725037 49.06640625 39.96679688 C49.59538672 41.39522828 50.12278605 42.82424643 50.6484375 44.25390625 C50.90039886 44.89791885 51.15236023 45.54193146 51.41195679 46.20545959 C54.48649369 54.8142596 51.78933683 62.53784959 48.91015625 70.8125 C48.45327675 72.15489746 48.45327675 72.15489746 47.98716736 73.52441406 C47.3469378 75.39819075 46.70214511 77.27041403 46.05297852 79.14111328 C45.05707648 82.01565428 44.07939239 84.89595077 43.10351562 87.77734375 C42.47762956 89.60192888 41.85071355 91.42616111 41.22265625 93.25 C40.78349632 94.54514526 40.78349632 94.54514526 40.33546448 95.86645508 C40.0585527 96.65818115 39.78164093 97.44990723 39.49633789 98.265625 C39.25508682 98.96461914 39.01383575 99.66361328 38.76527405 100.38378906 C38 102 38 102 36 103 C15.89126946 48.66901532 15.89126946 48.66901532 7.16116333 24.39227295 C6.51399698 22.59448722 5.86465614 20.79748272 5.21310425 19.00128174 C4.3167075 16.52782147 3.42857818 14.05155822 2.54296875 11.57421875 C2.28151062 10.85706192 2.02005249 10.13990509 1.75067139 9.40101624 C0.55439542 6.0235738 0 3.63716894 0 0 Z " fill="#B61D1F" transform="translate(285,368)"/>
<path d="M0 0 C1.21042969 0.37253906 2.42085937 0.74507813 3.66796875 1.12890625 C16.77122681 5.70946053 28.18240482 13.25925488 38 23 C38.845625 23.804375 39.69125 24.60875 40.5625 25.4375 C41.7690625 26.7059375 41.7690625 26.7059375 43 28 C43.65355469 28.65871094 44.30710937 29.31742188 44.98046875 29.99609375 C56.72264751 42.30416064 66.12892227 59.09254225 69 76 C68.53515625 78.20703125 68.53515625 78.20703125 68 80 C67.59910156 78.80246094 67.19820312 77.60492188 66.78515625 76.37109375 C57.16509291 48.46743593 40.18106698 27.17952318 13.4375 14.0078125 C-11.63465651 2.30673058 -40.71843366 -0.08122893 -67.03686523 8.95019531 C-79.92577939 13.64159229 -91.65617243 19.92458652 -102 29 C-102.75667969 29.61359375 -103.51335937 30.2271875 -104.29296875 30.859375 C-119.61573623 43.62395238 -128.05979734 61.41436593 -134 80 C-135.60548003 76.00144597 -134.32730648 72.65374698 -133.0625 68.75 C-132.83723633 68.04907227 -132.61197266 67.34814453 -132.37988281 66.62597656 C-128.02910467 53.67764479 -121.64053899 42.55704952 -113 32 C-112.24976563 31.02160156 -112.24976563 31.02160156 -111.484375 30.0234375 C-107.09583694 24.49993269 -101.55317478 20.29527331 -96 16 C-95.25234375 15.401875 -94.5046875 14.80375 -93.734375 14.1875 C-66.71057637 -6.22208218 -31.74984678 -9.821193 0 0 Z " fill="#F8BF32" transform="translate(289,117)"/>
<path d="M0 0 C1.2495929 3.7487787 0.62442771 5.62715768 -0.23168945 9.47509766 C-0.44610687 10.45357918 -0.44610687 10.45357918 -0.66485596 11.451828 C-1.13963934 13.60777366 -1.62604665 15.7608993 -2.11328125 17.9140625 C-2.44667518 19.40943497 -2.7796108 20.90490969 -3.11210632 22.40048218 C-3.81066025 25.53380659 -4.51501135 28.66575733 -5.22338867 31.796875 C-6.13247745 35.8174999 -7.02673243 39.84125437 -7.91665363 43.86615944 C-8.6011667 46.95407385 -9.29365266 50.04015741 -9.98857689 53.12574387 C-10.32161908 54.60920405 -10.6521078 56.09323981 -10.98003578 57.5778389 C-11.43861029 59.64838988 -11.90787814 61.71622293 -12.38012695 63.78369141 C-12.64517532 64.96266998 -12.91022369 66.14164856 -13.18330383 67.35635376 C-13.45281357 68.22875702 -13.7223233 69.10116028 -14 70 C-14.99 70.495 -14.99 70.495 -16 71 C-18.57834138 66.66280502 -21.15602775 62.32522163 -23.7331543 57.98730469 C-24.6066801 56.51715033 -25.48037295 55.0470952 -26.35424805 53.57714844 C-31.60770168 44.74001358 -36.83888142 35.89149535 -42 27 C-34.47065848 21.56226087 -26.68418342 16.63371242 -18.75 11.8125 C-16.4729387 10.42483582 -14.1972819 9.0349107 -11.921875 7.64453125 C-10.92768555 7.03971924 -9.93349609 6.43490723 -8.90917969 5.81176758 C-5.89425047 3.93414172 -2.94517825 1.98468705 0 0 Z " fill="#F37E1D" transform="translate(319,184)"/>
<path d="M0 0 C8.67300083 4.76571035 17.08861676 9.87558747 25.4375 15.1875 C26.37223145 15.78127441 27.30696289 16.37504883 28.27001953 16.98681641 C33.28443218 20.19413641 38.19310973 23.48905263 43 27 C37.3170388 37.05100276 31.45918861 46.98564206 25.5 56.875 C24.66913054 58.25642604 23.83840075 59.63793611 23.0078125 61.01953125 C21.00680815 64.3473195 19.00394868 67.67398402 17 71 C14.19367553 68.19367553 13.87851166 64.981382 13.046875 61.22265625 C12.86593796 60.43203293 12.68500092 59.64140961 12.49858093 58.826828 C11.9085669 56.2402848 11.32908616 53.65150971 10.75 51.0625 C10.34828376 49.28926421 9.94601903 47.51615259 9.54321289 45.74316406 C8.54064933 41.32183075 7.54698714 36.89854921 6.5557251 32.47467041 C5.88319038 29.47984117 5.20415596 26.48651667 4.52407837 23.49339294 C3.82482169 20.41310111 3.1310338 17.33158466 2.4375 14.25 C2.18645508 13.14019775 1.93541016 12.03039551 1.67675781 10.88696289 C1.45213867 9.87754639 1.22751953 8.86812988 0.99609375 7.828125 C0.80200928 6.9609082 0.6079248 6.09369141 0.40795898 5.20019531 C0 3 0 3 0 0 Z " fill="#F37E1D" transform="translate(192,184)"/>
<path d="M0 0 C2.85215083 2.75118973 5.34358701 5.60315225 7.75 8.75 C8.36359375 9.54921875 8.9771875 10.3484375 9.609375 11.171875 C10.06828125 11.77515625 10.5271875 12.3784375 11 13 C10.34 13.66 9.68 14.32 9 15 C7.49428254 12.87885041 5.99531321 10.75346385 4.5 8.625 C4.07074219 8.02171875 3.64148438 7.4184375 3.19921875 6.796875 C0 2.2265625 0 2.2265625 0 0 Z " fill="#F9C539" transform="translate(166,271)"/>
</svg>
