<?xml version="1.0" encoding="UTF-8"?>
<svg version="1.1" xmlns="http://www.w3.org/2000/svg" width="512" height="512">
<path d="M0 0 C1.29087277 -0.12812344 2.58174553 -0.25624688 3.91173565 -0.38825285 C39.91657048 -3.92836588 76.00317512 -6.14814033 112.15576172 -7.44775391 C112.9934205 -7.47797278 113.83107928 -7.50819165 114.69412166 -7.53932625 C201.25014892 -10.60556286 278.36074322 -9.39757361 345.32070935 52.01576591 C353.54926731 59.76175307 361.31715597 67.92761692 368.96826172 76.23974609 C369.80629947 77.14650778 370.64433722 78.05326946 371.50777006 78.98750877 C412.20392818 123.24709607 445.36253037 172.23498663 442.85042733 234.43629545 C441.7720793 255.71851538 437.96584562 276.46464237 432.03076172 296.92724609 C431.82033548 297.66131243 431.60990925 298.39537876 431.39310646 299.15168953 C426.4829745 316.13623812 417.50596576 329.80084371 402.03076172 338.92724609 C386.6203738 347.35587853 369.2040354 348.16044318 352.06152344 349.85449219 C350.77065067 349.98261563 349.47977791 350.11073907 348.14978778 350.24274504 C312.14495296 353.78285807 276.05834832 356.00263252 239.90576172 357.30224609 C239.06810294 357.33246497 238.23044416 357.36268384 237.36740178 357.39381844 C150.81137451 360.46005504 73.70078021 359.2520658 6.74081409 297.83872628 C-1.48774388 290.09273911 -9.25563254 281.92687527 -16.90673828 273.61474609 C-17.74477603 272.70798441 -18.58281379 271.80122272 -19.44624662 270.86698341 C-60.14240475 226.60739612 -93.30100693 177.61950556 -90.78890389 115.41819674 C-89.71055586 94.1359768 -85.90432218 73.38984982 -79.96923828 52.92724609 C-79.75881205 52.19317976 -79.54838581 51.45911343 -79.33158302 50.70280266 C-74.42145107 33.71825407 -65.44444233 20.05364848 -49.96923828 10.92724609 C-34.55885036 2.49861365 -17.14251196 1.69404901 0 0 Z M18.03076172 102.92724609 C19.59751109 110.16639094 19.59751109 110.16639094 21.70043945 117.125 C22.02007156 118.05000305 22.33970367 118.9750061 22.66902161 119.92803955 C23.01398178 120.91004333 23.35894196 121.89204712 23.71435547 122.90380859 C24.08175339 123.96283386 24.44915131 125.02185913 24.8276825 126.11297607 C26.03657859 129.59436229 27.25240162 133.07328658 28.46826172 136.55224609 C29.31821565 138.99559181 30.16765394 141.43911696 31.01660156 143.8828125 C32.33901049 147.68865899 33.66170892 151.49439944 34.98687744 155.29928589 C38.07410139 164.16438513 41.14238978 173.03581635 44.19873047 181.91162109 C44.61696579 183.12558563 45.03520111 184.33955017 45.46611023 185.59030151 C47.08314072 190.28399864 48.70015979 194.97769831 50.31491089 199.67218018 C55.75222096 215.47426634 61.3423122 231.21360831 67.03076172 246.92724609 C75.61076172 246.92724609 84.19076172 246.92724609 93.03076172 246.92724609 C98.86828733 229.4824666 104.70203993 212.03644013 110.52895164 194.58811283 C113.23478538 186.48606105 115.9422975 178.38457752 118.65380859 170.28442383 C121.01796663 163.22191087 123.37892725 156.15833847 125.73610175 149.09349149 C126.98357638 145.35496844 128.23261359 141.61698444 129.48548508 137.88026619 C130.66641393 134.35795079 131.84303907 130.83422638 133.0164814 127.3094101 C133.65001195 125.41002797 134.28800456 123.51213593 134.92616272 121.61430359 C135.30754898 120.46602081 135.68893524 119.31773804 136.08187866 118.13465881 C136.57688149 116.65379838 136.57688149 116.65379838 137.08188438 115.14302158 C138.26736688 111.12538367 139.12206431 107.01638441 140.03076172 102.92724609 C130.13076172 102.92724609 120.23076172 102.92724609 110.03076172 102.92724609 C106.74299669 111.10766023 106.74299669 111.10766023 103.8359375 119.37646484 C103.26481735 121.12008301 103.26481735 121.12008301 102.68215942 122.89892578 C102.28415131 124.12514648 101.88614319 125.35136719 101.47607422 126.61474609 C101.04806326 127.92506654 100.61974232 129.23528577 100.19113159 130.54541016 C99.06941378 133.97666823 97.95152801 137.40916194 96.83459473 140.84197998 C95.71583718 144.27862371 94.5940096 147.71426436 93.47216797 151.14990234 C93.25343395 151.8197818 93.03469994 152.48966125 92.80933762 153.17984009 C92.37234264 154.51813166 91.93533485 155.85641905 91.4983139 157.19470215 C90.85655598 159.16045504 90.21526061 161.12635836 89.57403564 163.09228516 C86.43265919 172.71734984 83.25468576 182.32953042 80.03076172 191.92724609 C77.12412823 185.68451164 74.70360939 179.3869348 72.52685547 172.85693359 C72.20677521 171.90917557 71.88669495 170.96141754 71.55691528 169.98493958 C70.87531334 167.96600394 70.19550363 165.94646248 69.5173645 163.92636108 C67.7476842 158.65644391 65.96347626 153.39145449 64.17919922 148.12646484 C63.64906975 146.56116783 63.64906975 146.56116783 63.10823059 144.96424866 C60.0068555 135.82259111 56.82924184 126.70954604 53.59326172 117.61474609 C53.36242889 116.96431335 53.13159607 116.31388062 52.89376831 115.64373779 C50.71825396 109.17935806 50.71825396 109.17935806 48.03076172 102.92724609 C38.13076172 102.92724609 28.23076172 102.92724609 18.03076172 102.92724609 Z M161.03076172 102.92724609 C161.03076172 150.44724609 161.03076172 197.96724609 161.03076172 246.92724609 C170.93076172 246.92724609 180.83076172 246.92724609 191.03076172 246.92724609 C191.03076172 199.40724609 191.03076172 151.88724609 191.03076172 102.92724609 C181.13076172 102.92724609 171.23076172 102.92724609 161.03076172 102.92724609 Z M223.03076172 102.92724609 C223.03076172 150.44724609 223.03076172 197.96724609 223.03076172 246.92724609 C232.60076172 246.92724609 242.17076172 246.92724609 252.03076172 246.92724609 C252.03076172 230.42724609 252.03076172 213.92724609 252.03076172 196.92724609 C259.62076172 196.92724609 267.21076172 196.92724609 275.03076172 196.92724609 C288.66638264 194.65464261 300.44128839 188.52806581 308.58154297 177.16162109 C315.89099352 165.89206391 319.12458268 153.99186276 316.34326172 140.62255859 C312.30722218 126.32825189 304.62958217 115.51729728 291.60498047 108.17724609 C271.16560357 98.25220724 243.12001631 102.92724609 223.03076172 102.92724609 Z " fill="#000000" transform="translate(79.96923828125,81.07275390625)"/>
<path d="M0 0 C8.58971188 -0.09345857 17.17920468 -0.16414363 25.76930237 -0.20724869 C29.75979818 -0.22795668 33.7499414 -0.25595877 37.74023438 -0.30175781 C41.60471972 -0.34582571 45.46887006 -0.36926258 49.33358765 -0.37950897 C50.79411073 -0.38679289 52.25461945 -0.40100929 53.71499634 -0.42292023 C72.97456466 -0.69989015 90.42619488 4.08229153 104.81542969 17.52954102 C112.77706764 25.45241344 117.8318456 35.27839272 121 46 C121.26537819 46.84102264 121.26537819 46.84102264 121.53611755 47.69903564 C122.17654851 50.8757215 122.11911237 53.91482549 122.11352539 57.15527344 C122.11367142 57.86786819 122.11381744 58.58046295 122.1139679 59.31465149 C122.11327291 61.66292395 122.10549994 64.01111645 122.09765625 66.359375 C122.0957906 67.99033566 122.09436739 69.62129688 122.09336853 71.2522583 C122.08955494 75.53974969 122.07973454 79.82720708 122.06866455 84.11468506 C122.05842553 88.49181661 122.05386557 92.86895367 122.04882812 97.24609375 C122.03811123 105.83074475 122.02104872 114.41536814 122 123 C115.50335219 117.64626288 109.59349211 111.74190797 103.64868164 105.79394531 C102.51485641 104.66311646 101.38082781 103.53249148 100.24661255 102.40205383 C97.18478146 99.34901025 94.12615706 96.292774 91.06839681 93.23565388 C89.1577999 91.32576953 87.24649202 89.41659968 85.33492851 87.5076828 C78.66696849 80.84895304 72.00157517 74.18766654 65.33862305 67.52392578 C59.12362034 61.30832027 52.90303912 55.09833637 46.6798659 48.89091229 C41.33438504 43.55847911 35.99273818 38.2222261 30.6540975 32.88294482 C27.46623943 29.6948313 24.27683367 26.50830395 21.0835743 23.32559967 C18.08733718 20.33899889 15.0958787 17.34769519 12.10811234 14.35262108 C11.00848138 13.25193926 9.907124 12.15297924 8.80396461 11.05583382 C7.30424718 9.56376758 5.81075332 8.06574395 4.31874084 6.565979 C3.47978303 5.72756596 2.64082521 4.88915291 1.77644444 4.0253334 C0 2 0 2 0 0 Z " fill="#000000" transform="translate(390,84)"/>
<path d="M0 0 C6.49664781 5.35373712 12.40650789 11.25809203 18.35131836 17.20605469 C19.48514359 18.33688354 20.61917219 19.46750852 21.75338745 20.59794617 C24.81521854 23.65098975 27.87384294 26.707226 30.93160319 29.76434612 C32.8422001 31.67423047 34.75350798 33.58340032 36.66507149 35.4923172 C43.33303151 42.15104696 49.99842483 48.81233346 56.66137695 55.47607422 C62.87637966 61.69167973 69.09696088 67.90166363 75.3201341 74.10908771 C80.66561496 79.44152089 86.00726182 84.7777739 91.3459025 90.11705518 C94.53376057 93.3051687 97.72316633 96.49169605 100.9164257 99.67440033 C103.91266282 102.66100111 106.9041213 105.65230481 109.89188766 108.64737892 C110.99151862 109.74806074 112.092876 110.84702076 113.19603539 111.94416618 C114.69575282 113.43623242 116.18924668 114.93425605 117.68125916 116.434021 C118.52021697 117.27243404 119.35917479 118.11084709 120.22355556 118.9746666 C122 121 122 121 122 123 C113.41028812 123.09345857 104.82079532 123.16414363 96.23069763 123.20724869 C92.24020182 123.22795668 88.2500586 123.25595877 84.25976562 123.30175781 C80.39528028 123.34582571 76.53112994 123.36926258 72.66641235 123.37950897 C71.20588927 123.38679289 69.74538055 123.40100929 68.28500366 123.42292023 C49.04436736 123.69961789 31.53388408 118.93789009 17.18237305 105.46166992 C5.63089058 93.925685 -0.48630506 78.59353109 -0.58035564 62.40501308 C-0.56619963 60.12498071 -0.52780731 57.84612736 -0.48828125 55.56640625 C-0.47892525 53.95117808 -0.47182238 52.33593546 -0.46684265 50.72068787 C-0.44799133 46.52337633 -0.39908799 42.32696653 -0.34332275 38.13000488 C-0.29165013 33.82572621 -0.26922746 29.52129805 -0.24414062 25.21679688 C-0.1909407 16.81078972 -0.10590395 8.40550784 0 0 Z " fill="#000000" transform="translate(0,305)"/>
<path d="M0 0 C3.63 -0.103125 7.26 -0.20625 11 -0.3125 C12.69189453 -0.38078003 12.69189453 -0.38078003 14.41796875 -0.45043945 C21.13525066 -0.54222178 25.95251249 0.34831702 31 5 C34.35252924 9.55778936 35.73298183 14.09624217 35.44921875 19.76171875 C34.33825216 25.29723052 31.26714217 28.99145828 26.9375 32.4375 C22.90602768 34.58190017 19.77323257 35.12675149 15.234375 35.09765625 C14.43225586 35.09515869 13.63013672 35.09266113 12.80371094 35.09008789 C11.79598633 35.08098389 10.78826172 35.07187988 9.75 35.0625 C6.5325 35.041875 3.315 35.02125 0 35 C0 23.45 0 11.9 0 0 Z " fill="#000000" transform="translate(333,214)"/>
</svg>
